<svg width="629" height="688" viewBox="0 0 629 688" fill="none" xmlns="http://www.w3.org/2000/svg">
<path d="M506.026 102.717C569.176 162.678 620.538 231.329 627.274 303.456C634.01 375.583 595.278 451.186 551.494 518.968C508.552 587.619 460.558 649.318 399.092 673.65C337.626 698.851 261.004 686.685 186.908 662.353C111.97 638.021 37.8739 601.523 11.7719 543.3C-13.4881 484.208 7.56196 402.522 32.822 333.871C58.082 264.351 86.71 206.997 130.494 144.429C174.278 80.992 233.218 11.472 300.578 1.91299C367.938 -7.64601 442.876 42.756 506.026 102.717Z" fill="url(#paint0_linear_66_60)"/>
<defs>
<linearGradient id="paint0_linear_66_60" x1="0.369141" y1="687.58" x2="684.428" y2="62.4472" gradientUnits="userSpaceOnUse">
<stop stop-color="#F87537"/>
<stop offset="1" stop-color="#FBA81F"/>
</linearGradient>
</defs>
</svg>
