<svg width="56" height="63" viewBox="0 0 56 63" fill="none" xmlns="http://www.w3.org/2000/svg">
<path d="M10.08 5.04004C6.98878 5.04004 4.47998 7.86244 4.47998 11.34V51.66C4.47998 55.1376 6.98878 57.96 10.08 57.96H45.92C49.0112 57.96 51.52 55.1376 51.52 51.66V11.34C51.52 7.86244 49.0112 5.04004 45.92 5.04004H10.08ZM13.44 22.68H20.9781C21.7957 22.68 26.2194 22.6174 26.2194 27.1786C26.2194 29.5978 24.7517 30.416 24.0909 30.7814C25.0765 31.1342 26.88 32.1552 26.88 35.28C26.88 40.1058 21.9627 40.32 21.3019 40.32H13.44V22.68ZM32.48 22.68H40.32V25.2H32.48V22.68ZM16.8 25.7414V29.8758H20.4072C20.9 29.8758 22.5334 29.5722 22.5334 27.72C22.5334 25.8678 20.406 25.7414 20.0812 25.7414H16.8ZM36.6581 26.46C41.0261 26.46 42.2123 30.2901 42.3915 31.1973C42.5595 32.1171 42.56 32.9238 42.56 34.02H33.7115C33.7115 35.1162 34.2279 37.5859 36.8375 37.5859C37.5319 37.5859 38.0458 37.3976 38.5722 37.0322C39.0874 36.6668 39.2682 36.3124 39.4362 35.947H42.3806C41.8654 37.396 41.1713 38.4941 40.1297 39.2249C39.0881 39.9557 37.8785 40.32 36.4897 40.32C35.6161 40.32 34.7536 40.1317 33.88 39.7663C33.1856 39.4009 32.4921 38.8586 31.9769 38.3168C31.4617 37.7624 31.1144 37.0313 30.7672 36.1241C30.42 35.3933 30.24 34.2972 30.24 33.39C30.24 32.4828 30.5653 26.46 36.6581 26.46ZM36.6581 29.017C34.1269 29.017 33.7115 31.7518 33.7115 31.9282H39.2678C39.0886 31.021 38.3605 29.017 36.6581 29.017ZM16.8 32.3958V37.2586H20.5537C20.8774 37.2586 23.1612 37.146 23.1612 34.9158C23.1612 32.6982 21.3668 32.3958 20.5537 32.3958H16.8Z" fill="#A7A9BE"/>
</svg>
