<svg width="277" height="273" viewBox="0 0 277 273" fill="none" xmlns="http://www.w3.org/2000/svg">
<g clip-path="url(#clip0_66_73)">
<path d="M215.128 145.658C212.012 160.636 197.753 173.08 183.297 183.262C169.012 193.341 154.807 201.229 140.959 200.807C127.178 200.107 113.754 191.097 102.454 180.564C90.9828 170.134 81.8459 158.529 74.3189 142.616C66.8973 126.877 61.1251 107.283 67.1421 92.4521C73.159 77.621 90.8991 67.8304 107.701 66.9392C124.397 65.8738 140.156 73.7077 155.69 80.011C171.224 86.3143 186.6 90.8089 198.322 102.039C210.216 113.166 218.243 130.679 215.128 145.658Z" fill="url(#paint0_linear_66_73)"/>
</g>
<defs>
<linearGradient id="paint0_linear_66_73" x1="45.9616" y1="97.1255" x2="236.369" y2="132.774" gradientUnits="userSpaceOnUse">
<stop stop-color="#F87537"/>
<stop offset="1" stop-color="#FBA81F"/>
</linearGradient>
<clipPath id="clip0_66_73">
<rect width="203.611" height="200.456" fill="white" transform="translate(171.468 -5) rotate(58.8026)"/>
</clipPath>
</defs>
</svg>
