<svg width="293" height="248" viewBox="0 0 293 248" fill="none" xmlns="http://www.w3.org/2000/svg">
<path d="M153.906 246.914C122.982 250.08 84.5487 246.91 58.4007 224.633C32.2698 201.807 18.4244 159.875 8.84385 117.525C-0.736741 75.1743 -5.52584 32.5596 12.3328 13.6925C30.4462 -4.82368 71.7341 0.561061 105.461 1.25411C139.715 2.10055 166.68 -1.94218 186.185 11.7609C205.69 25.4639 217.208 56.7594 238.547 88.4251C260.413 120.244 291.572 152.28 292.183 175.42C292.538 198.208 262.09 211.749 235.158 223.27C208.227 234.792 184.83 243.747 153.906 246.914Z" fill="url(#paint0_linear_66_79)"/>
<defs>
<linearGradient id="paint0_linear_66_79" x1="129.296" y1="-71.8075" x2="21.7529" y2="284.694" gradientUnits="userSpaceOnUse">
<stop stop-color="#F87537"/>
<stop offset="1" stop-color="#FBA81F"/>
</linearGradient>
</defs>
</svg>
