<svg width="196" height="210" viewBox="0 0 196 210" fill="none" xmlns="http://www.w3.org/2000/svg">
<g clip-path="url(#clip0_66_76)">
<path d="M160.034 72.4913C165.124 86.004 163.642 101.458 158.91 114.759C154.178 128.06 146.463 138.964 136.386 147.195C126.31 155.425 114.139 160.737 101.565 161.009C88.99 161.281 76.2192 156.42 65.3196 148.113C54.5677 139.864 45.5987 127.96 44.4418 115.3C43.1372 102.583 49.5852 89.261 57.4212 77.1839C65.3167 64.9559 74.5405 54.1234 87.099 47.3949C99.598 40.8172 115.372 38.4945 129.12 43.0435C143.075 47.4998 154.944 58.9786 160.034 72.4913Z" fill="url(#paint0_linear_66_76)"/>
</g>
<defs>
<linearGradient id="paint0_linear_66_76" x1="31.1594" y1="137.436" x2="185.935" y2="80.3624" gradientUnits="userSpaceOnUse">
<stop stop-color="#F87537"/>
<stop offset="1" stop-color="#FBA81F"/>
</linearGradient>
<clipPath id="clip0_66_76">
<rect width="158.88" height="162.179" fill="white" transform="translate(59.6821 0.846924) rotate(21.5187)"/>
</clipPath>
</defs>
</svg>
