<svg width="190" height="195" viewBox="0 0 190 195" fill="none" xmlns="http://www.w3.org/2000/svg">
<g clip-path="url(#clip0_66_73)">
<path d="M171.372 117.422C168.256 132.401 153.997 144.844 139.541 155.026C125.256 165.105 111.051 172.993 97.2032 172.571C83.4217 171.872 69.9981 162.862 58.6981 152.328C47.2267 141.899 38.0898 130.293 30.5628 114.38C23.1412 98.6416 17.369 79.0478 23.386 64.2167C29.4029 49.3855 47.143 39.5949 63.9449 38.7037C80.6413 37.6383 96.3994 45.4722 111.934 51.7755C127.468 58.0788 142.844 62.5734 154.566 73.8037C166.46 84.9301 174.487 102.444 171.372 117.422Z" fill="url(#paint0_linear_66_73)"/>
</g>
<defs>
<linearGradient id="paint0_linear_66_73" x1="2.2055" y1="68.89" x2="192.613" y2="104.539" gradientUnits="userSpaceOnUse">
<stop stop-color="#F87537"/>
<stop offset="1" stop-color="#FBA81F"/>
</linearGradient>
<clipPath id="clip0_66_73">
<rect width="146.724" height="132.52" fill="white" transform="translate(113.356) rotate(58.8026)"/>
</clipPath>
</defs>
</svg>
