<svg width="67" height="75" viewBox="0 0 67 75" fill="none" xmlns="http://www.w3.org/2000/svg">
<path d="M33.5001 6L5.36011 26.0156V48.9785L33.5001 69L61.6401 48.9844V26.0156L33.5001 6ZM33.5001 43.7754L25.5491 37.6055L33.5001 31.5352L41.4511 37.6055L33.5001 43.7754ZM36.1801 26.4082V14.9238L54.1759 27.7266L46.1097 33.9844L36.1801 26.4082ZM30.8201 26.4082L20.8905 33.9844L12.8243 27.7266L30.8201 14.9238V26.4082ZM16.2057 37.5645L10.7201 41.7481V33.3047L16.2057 37.5645ZM20.8643 41.1797L30.8201 48.9082V60.0762L12.8505 47.291L20.8643 41.1797ZM36.1801 48.9082L46.1359 41.1797L54.1497 47.291L36.1801 60.0762V48.9082ZM50.7945 37.5645L56.2801 33.3047V41.7481L50.7945 37.5645Z" fill="#A7A9BE"/>
</svg>
