<svg width="56" height="63" viewBox="0 0 56 63" fill="none" xmlns="http://www.w3.org/2000/svg">
<path d="M10.08 5.04004C6.98878 5.04004 4.47998 7.86244 4.47998 11.34V51.66C4.47998 55.1376 6.98878 57.96 10.08 57.96H45.92C49.0112 57.96 51.52 55.1376 51.52 51.66V11.34C51.52 7.86244 49.0112 5.04004 45.92 5.04004H10.08ZM29.3103 13.86C31.5167 13.86 33.6 16.0902 33.6 27.09C33.6 31.0212 33.0054 36.7301 30.9334 41.4299C31.8294 42.7403 32.7264 43.155 33.32 42.84C35 41.9328 36.0745 38.7453 37.0825 35.2677C37.3625 34.3227 38.2938 33.8065 39.1562 34.0963C40.0298 34.3987 40.5212 35.4058 40.2412 36.3382C39.39 39.2866 37.0051 46.5954 33.3987 46.5954C32.2563 46.5954 30.7206 46.5446 29.2534 44.9318C27.607 47.4518 25.5588 49.14 23.1284 49.14C17.9876 49.14 15.68 44.7436 15.68 40.384C15.68 35.7598 17.7865 30.304 22.5465 30.304C23.3529 30.304 24.0913 30.4679 24.7297 30.7199C24.6401 29.4599 24.64 28.4519 24.64 26.9399C24.64 26.8013 24.6847 13.86 29.3103 13.86ZM29.4437 17.704C28.7605 19.0144 27.9562 22.8428 27.9562 26.9252C27.9562 31.3604 28.4146 34.7632 29.109 37.2832C30.1506 34.045 30.2837 30.2778 30.2837 27.09C30.2837 21.0924 29.9701 18.5356 29.4437 17.704ZM22.5334 34.02C18.9718 34.02 19.04 40.2308 19.04 40.4702C19.04 42.0326 19.3638 45.36 23.0934 45.36C24.527 45.36 25.9849 44.0744 27.2169 41.8064C26.4665 40.2314 25.7601 37.7622 25.2897 35.28C25.2001 35.2044 25.1099 35.1295 25.0315 35.0413C25.0315 35.0413 23.9446 34.02 22.5334 34.02Z" fill="#A7A9BE"/>
</svg>
