<svg width="56" height="63" viewBox="0 0 56 63" fill="none" xmlns="http://www.w3.org/2000/svg">
<path d="M19.9259 59.0134C20.7222 58.6278 21.28 57.737 21.28 56.7V49.896C21.28 49.6478 21.2979 49.3895 21.3259 49.1274C21.3102 49.1325 21.2957 49.1362 21.28 49.14C21.28 49.14 17.92 49.14 17.248 49.14C15.568 49.14 14.112 48.384 13.44 46.872C12.656 45.234 12.32 42.462 10.304 40.95C9.96799 40.698 10.192 40.32 10.864 40.32C11.536 40.446 12.992 41.454 13.888 42.84C14.896 44.226 15.904 45.36 17.696 45.36C20.4814 45.36 21.9744 45.2025 22.8726 44.6607C23.9187 42.9106 25.3669 41.58 26.88 41.58V41.5485C20.5318 41.3192 16.4763 38.9454 14.588 35.28C10.4832 35.3329 6.90927 35.7903 4.86975 36.1708C4.80479 35.7588 4.74879 35.3443 4.70063 34.9272C6.71327 34.5543 10.1248 34.112 14.047 34.0276C13.9216 33.6798 13.813 33.3232 13.7211 32.9578C9.78879 32.7336 6.39519 32.9087 4.55167 33.0801C4.52927 32.6617 4.49903 32.2447 4.49455 31.8213C6.34143 31.6512 9.64319 31.4811 13.4747 31.6815C13.3862 31.0515 13.3291 30.4076 13.3291 29.7373C13.3291 27.5953 14.0011 25.3273 15.2331 23.4373C14.6731 21.2953 13.8891 16.7593 15.4571 15.1213C18.4811 15.1213 20.6091 16.7593 21.6171 17.7673C23.52 16.884 25.648 16.38 28 16.38C30.352 16.38 32.48 16.884 34.272 17.766C35.28 16.758 37.408 15.12 40.432 15.12C42.112 16.884 41.216 21.42 40.656 23.436C41.888 25.326 42.56 27.468 42.448 29.736C42.448 30.3459 42.3976 30.9343 42.3248 31.5114C46.2437 31.2946 49.635 31.4685 51.5133 31.6399C51.511 32.0645 51.4763 32.479 51.4562 32.8986C49.5846 32.7247 46.1082 32.5458 42.0941 32.7865C41.9944 33.2098 41.8734 33.6219 41.7301 34.0213C45.7016 34.0792 49.1949 34.5114 51.3038 34.8894C51.2557 35.3077 51.1997 35.7223 51.1347 36.133C48.9933 35.7475 45.3432 35.2964 41.1902 35.2737C39.3254 38.9 35.3438 41.265 29.12 41.541V41.58C32.032 41.58 34.72 46.494 34.72 49.896V56.7C34.72 57.737 35.2777 58.6278 36.0741 59.0134C46.3344 55.1931 53.76 44.3067 53.76 31.5C53.76 15.5207 42.2049 2.52002 28 2.52002C13.795 2.52002 2.23999 15.5207 2.23999 31.5C2.23999 44.3067 9.66559 55.1931 19.9259 59.0134Z" fill="#A7A9BE"/>
</svg>
