<svg width="56" height="63" viewBox="0 0 56 63" fill="none" xmlns="http://www.w3.org/2000/svg">
<path d="M49.3333 0H6.66667C2.98667 0 0 3.36 0 7.5V55.5C0 59.64 2.98667 63 6.66667 63H49.3333C53.0133 63 56 59.64 56 55.5V7.5C56 3.36 53.0133 0 49.3333 0ZM17.3333 24V52.5H9.33333V24H17.3333ZM9.33333 15.705C9.33333 13.605 10.9333 12 13.3333 12C15.7333 12 17.24 13.605 17.3333 15.705C17.3333 17.805 15.84 19.5 13.3333 19.5C10.9333 19.5 9.33333 17.805 9.33333 15.705ZM46.6667 52.5H38.6667C38.6667 52.5 38.6667 38.61 38.6667 37.5C38.6667 34.5 37.3333 31.5 34 31.44H33.8933C30.6667 31.44 29.3333 34.53 29.3333 37.5C29.3333 38.865 29.3333 52.5 29.3333 52.5H21.3333V24H29.3333V27.84C29.3333 27.84 31.9067 24 37.08 24C42.3733 24 46.6667 28.095 46.6667 36.39V52.5Z" fill="#A7A9BE"/>
</svg>
