<svg width="120" height="122" viewBox="0 0 120 122" fill="none" xmlns="http://www.w3.org/2000/svg">
<path d="M116.034 32.4912C121.124 46.0039 119.642 61.4579 114.91 74.7589C110.178 88.0599 102.463 98.9643 92.3863 107.194C82.3099 115.425 70.139 120.737 57.5645 121.009C44.99 121.281 32.2192 116.42 21.3196 108.113C10.5677 99.8636 1.59865 87.9594 0.441805 75.3001C-0.862848 62.5826 5.58521 49.2609 13.4212 37.1838C21.3167 24.9558 30.5405 14.1232 43.099 7.39473C55.598 0.817108 71.372 -1.50558 85.1198 3.04335C99.0749 7.49968 110.944 18.9785 116.034 32.4912Z" fill="url(#paint0_linear_66_77)"/>
<defs>
<linearGradient id="paint0_linear_66_77" x1="-12.8406" y1="97.4362" x2="141.935" y2="40.3622" gradientUnits="userSpaceOnUse">
<stop stop-color="#F87537"/>
<stop offset="1" stop-color="#FBA81F"/>
</linearGradient>
</defs>
</svg>
