<svg width="536" height="559" viewBox="0 0 536 559" fill="none" xmlns="http://www.w3.org/2000/svg">
<path d="M388.572 150.276C425.219 170.651 464.062 203.218 471.507 245.882C478.416 289.093 453.928 342.402 424.404 392.881C394.879 443.361 359.89 490.453 322.653 496.053C285.469 501.102 245.608 464.099 209.552 437.65C173.066 410.643 139.902 394.182 131.599 365.327C123.295 336.473 140.282 295.782 146.928 247.218C153.146 198.096 149.452 141.659 170.617 117.607C191.728 94.108 237.644 103.546 277.828 112.358C318.011 121.17 351.926 129.9 388.572 150.276Z" fill="url(#paint0_linear_272_2)"/>
<defs>
<linearGradient id="paint0_linear_272_2" x1="114.683" y1="493.929" x2="539.69" y2="174.848" gradientUnits="userSpaceOnUse">
<stop stop-color="#F87537"/>
<stop offset="1" stop-color="#FBA81F"/>
</linearGradient>
</defs>
</svg>
