<svg width="549" height="451" viewBox="0 0 549 451" fill="none" xmlns="http://www.w3.org/2000/svg">
<g clip-path="url(#clip0_76_17)">
<path d="M293.706 99.3816C328.189 95.9763 356.588 106.379 375.808 122.098C395.027 137.817 404.986 158.212 406.075 181.932C407.164 205.652 399.303 232.056 380.838 256.803C362.374 281.55 333.436 304.191 300.493 321.495C267.889 338.539 230.733 350.319 203.886 346.439C176.7 342.82 160.033 323.732 147.931 302.531C135.62 281.14 128.083 257.826 133.722 229.976C139.571 202.316 158.805 170.31 188.601 145.605C218.526 120.45 259.222 102.787 293.706 99.3816Z" fill="url(#paint0_linear_76_17)"/>
</g>
<defs>
<linearGradient id="paint0_linear_76_17" x1="227.7" y1="383.184" x2="198.212" y2="66.4873" gradientUnits="userSpaceOnUse">
<stop stop-color="#F87537"/>
<stop offset="1" stop-color="#FBA81F"/>
</linearGradient>
<clipPath id="clip0_76_17">
<rect width="427.805" height="282.408" fill="white" transform="matrix(0.792235 -0.610216 0.740861 0.671659 0 261.053)"/>
</clipPath>
</defs>
</svg>
